<svg xmlns="http://www.w3.org/2000/svg" viewBox="0 0 288 288"><defs><style>.cls-1{isolation:isolate;}.cls-2{fill:#d4d4d4;}.cls-3{fill:#ccc;mix-blend-mode:multiply;}.cls-4{fill:#fff;}</style></defs><g class="cls-1"><g id="Layer_1" data-name="Layer 1"><rect class="cls-2" width="288" height="288"/><polygon class="cls-3" points="59.07 83.18 53.05 77.14 47.68 77.14 53.71 83.18 59.07 83.18"/><path class="cls-3" d="M59.6,77.16,59.48,93H52.92l6,6h6.56l.12-15.81H71c.31-2.09.58-4.17.89-6.33l-5.8-5.82c0-.06.07-.13.11-.18a.56.56,0,0,1,0-.08l.11-.11a1.57,1.57,0,0,1,.27-.25l.16-.1a2.1,2.1,0,0,1,.3-.15l.19-.07a3.29,3.29,0,0,1,.37-.1l.17,0a5.54,5.54,0,0,1,.6-.06l1.39,0h2.3l.05-5.64-6-6,0,5.63H63.74l-1.39,0a5.35,5.35,0,0,0-.59.06l-.18,0a2.22,2.22,0,0,0-.37.09l-.18.07a1.77,1.77,0,0,0-.31.15l-.15.1a1.6,1.6,0,0,0-.27.25l-.09.08,0,0-.06.08s-.08.11-.11.17,0,.09-.07.14l0,.09,0,.07a3.25,3.25,0,0,0-.11.37v0l0,.16c0,.11,0,.22-.05.34a.86.86,0,0,1,0,.16c0,1.34-.08,4.31-.08,4.47l5.46,5.48-.12.85Z" transform="translate(0)"/><path class="cls-4" d="M61.49,58c.94,0,1.88.05,2.81.09.61,0,1.22.11,1.79.18l0,5.63H63.74l-1.39,0c-1.49,0-2.59.6-2.67,2.47,0,1.34-.08,4.31-.08,4.47h6.22c-.3,2.16-.58,4.24-.88,6.33H59.6L59.48,93H52.92L53,77.14H47.68l0-6.3h5.39v-.47c0-1.27,0-2.54,0-3.81a15,15,0,0,1,.21-2.41,7.18,7.18,0,0,1,2.87-4.71A8.24,8.24,0,0,1,61,58Z" transform="translate(0)"/><path class="cls-3" d="M130.54,71.42c-.43-.44-.86-.9-1.27-1.39l-6-6c.41.48.83.95,1.27,1.38Z" transform="translate(0)"/><path class="cls-3" d="M124.25,72l6,6a8.24,8.24,0,0,0,.94.8l-6-6A7.44,7.44,0,0,1,124.25,72Z" transform="translate(0)"/><path class="cls-3" d="M124.19,76.84l6,6a6.76,6.76,0,0,0,3.31,1.78l-6-6A6.65,6.65,0,0,1,124.19,76.84Z" transform="translate(0)"/><path class="cls-3" d="M158,70.48c.05-.09.09-.19.13-.28a3.81,3.81,0,0,0,.23-.5c0-.12.09-.25.13-.38l-6-6a6.82,6.82,0,0,1-.37.88l-.12.27a5.94,5.94,0,0,1-.38.59c-.09.11-.16.24-.25.35a5.27,5.27,0,0,1-.51.55,3.44,3.44,0,0,1-.27.27,6.7,6.7,0,0,1-.93.71l1.51,1.51c-.32.28-.63.56-1,.81l-.11.22a17.43,17.43,0,0,1,0,1.77c0,.39-.06.78-.11,1.17a15.52,15.52,0,0,1-.3,1.68c-.07.34-.16.68-.25,1,0,.13-.07.26-.11.39-.14.47-.29.93-.47,1.39s-.39,1-.62,1.46-.44.86-.67,1.27-.35.58-.53.86l-.35.55c-.21.31-.44.61-.67.91-.11.13-.21.28-.31.41-.35.43-.72.84-1.1,1.24a17.91,17.91,0,0,1-8.7,5l-5.14-5.16a6.63,6.63,0,0,1-4.55-2l6,6a6.62,6.62,0,0,0,2,1.38,20,20,0,0,1-2.57.25H131a18.67,18.67,0,0,1-10-2.87l-.16-.1,6,6,.16.1a18.62,18.62,0,0,0,10,2.87h.59a20.21,20.21,0,0,0,3.72-.44,17.88,17.88,0,0,0,9.18-5.1c.39-.39.75-.81,1.1-1.23l0,0c.1-.13.18-.26.28-.38.23-.3.46-.6.68-.91s.23-.37.34-.55.36-.57.53-.86l.08-.12c.21-.38.41-.76.6-1.16s.43-1,.62-1.45v0c.17-.45.32-.9.46-1.36,0-.13.06-.26.1-.39.08-.3.17-.59.24-.9,0,0,0-.08,0-.12.12-.55.22-1.1.3-1.67,0-.32.07-.64.1-1v-.2a17.63,17.63,0,0,0,0-1.78l.12-.21a13.09,13.09,0,0,0,1.28-1.06c.13-.13.25-.27.37-.4a9.59,9.59,0,0,0,.75-.81l0,0a1.34,1.34,0,0,0,.11-.14,9.43,9.43,0,0,0,.64-.88L158,70.54Z" transform="translate(0)"/><path class="cls-4" d="M153.36,65.9a9.65,9.65,0,0,1-.76,1,12.63,12.63,0,0,1-2.43,2.3l-.11.22a18.11,18.11,0,0,1-.15,2.94,19.49,19.49,0,0,1-1.75,5.93,19.74,19.74,0,0,1-3.63,5.24,18,18,0,0,1-9.19,5.1,20.88,20.88,0,0,1-3.71.43H131a18.67,18.67,0,0,1-10-2.87l-.16-.1a13.9,13.9,0,0,0,1.57.09,13.32,13.32,0,0,0,8.27-2.85,6.6,6.6,0,0,1-6.15-4.62,6.59,6.59,0,0,0,1.24.12,6.81,6.81,0,0,0,1.61-.19l.1,0a6.53,6.53,0,0,1-4.29-3.05,6.4,6.4,0,0,1-1-3.53,6.57,6.57,0,0,0,3,.79,6.65,6.65,0,0,1-2-8.84,18.83,18.83,0,0,0,13.66,6.95c0-.27-.07-.5-.11-.73a6.75,6.75,0,0,1,5.54-7.36,8.58,8.58,0,0,1,1.21-.1,6.42,6.42,0,0,1,4.6,2,.38.38,0,0,0,.25.11h.1a13.43,13.43,0,0,0,3.88-1.48l.09,0a6.6,6.6,0,0,1-2.83,3.62A13,13,0,0,0,153.36,65.9Z" transform="translate(0)"/><path class="cls-3" d="M214.62,70.21a4.28,4.28,0,0,0-.68.25,2.58,2.58,0,0,0-.37.19A5.14,5.14,0,0,0,213,71a2.16,2.16,0,0,0-.33.27,3.92,3.92,0,0,0-.46.45c-.06.06-.13.11-.18.17s-.08.13-.12.18l-.23.34-.16.23c0,.09-.09.2-.14.29s-.08.17-.11.25,0,.1-.07.14q-.12.34-.21.69v0a.17.17,0,0,1,0,.07,6.53,6.53,0,0,0-.1.66c0,.1,0,.2,0,.31a5.43,5.43,0,0,0,0,.57c0,.11,0,.23.06.34l0,.22a5,5,0,0,0,.23.8l0,.06.06.14a7.3,7.3,0,0,0,.36.68l.12.18.08.13a6.68,6.68,0,0,0,.49.57h0L216.63,83c-.22,0-.44,0-.66,0a8,8,0,0,1-3.77-.95,8.39,8.39,0,0,1-1.82-1.36h0l6,6A7.87,7.87,0,0,0,222,89.12a8.14,8.14,0,0,0,.87-.05l.28,0a5.62,5.62,0,0,0,.57-.09l.32-.09.5-.14.32-.12.46-.19.31-.15.44-.25.28-.16.44-.32.23-.17c.18-.14.35-.3.52-.46l.09-.08c.2-.2.38-.4.56-.61l0,0a.21.21,0,0,0,0-.06,7.51,7.51,0,0,0,.72-1l0,0v0a8,8,0,0,0,.43-.94.37.37,0,0,0,0-.11s0-.09.05-.13c.09-.26.17-.53.24-.8a.79.79,0,0,0,0-.13.06.06,0,0,0,0,0,8.48,8.48,0,0,0,.15-1,.29.29,0,0,0,0-.09c0-.19,0-.37,0-.56s0-.54,0-.81h0a8,8,0,0,0-.16-1c0-.09-.05-.18-.07-.26a6.18,6.18,0,0,0-.23-.73.83.83,0,0,0,0-.15.43.43,0,0,0,0-.07,6.53,6.53,0,0,0-.39-.85l-.09-.15c-.13-.22-.27-.44-.42-.65l-.07-.11-.09-.1a6.92,6.92,0,0,0-.67-.78h0l-6-6a8.21,8.21,0,0,1,.67.77c.05.07.11.14.16.22a7,7,0,0,1,.41.64l.09.15a9.37,9.37,0,0,1,.4.85c0,.07.05.15.08.22a6.14,6.14,0,0,1,.22.73,2.68,2.68,0,0,1,.07.27,7.55,7.55,0,0,1,.16,1,7.32,7.32,0,0,1,0,.81c0,.21,0,.42,0,.62l-4.26-4.28A5.08,5.08,0,0,0,216.12,70h-.05a5.11,5.11,0,0,0-1.11.13C214.84,70.13,214.74,70.18,214.62,70.21ZM218,78.12c.09-.12.2-.24.3-.35a4.89,4.89,0,0,1,.46-.45,3.92,3.92,0,0,1,.33-.27,4,4,0,0,1,.56-.35c.12-.07.23-.14.36-.2a5.1,5.1,0,0,1,.69-.24l.34-.11a5.62,5.62,0,0,1,1.1-.12h0a4.82,4.82,0,0,1,1.71.33c0,.14,0,.29-.06.43l0,.17a7.36,7.36,0,0,1-.24.8l-.09.25a7.9,7.9,0,0,1-.44.93l0,.06a9.73,9.73,0,0,1-.72,1l-.07.09a8,8,0,0,1-.55.61l-.09.08c-.17.16-.34.32-.53.47l-.22.16-.45.32L220,82c-.15.08-.3.17-.45.24l-.3.15-.47.19-.32.12-.5.15-.31.08-.45.08a4.44,4.44,0,0,1-.21-.71,1.7,1.7,0,0,1,0-.22,5.5,5.5,0,0,1-.08-.91,5.25,5.25,0,0,1,.12-1,.13.13,0,0,1,0-.06,4.68,4.68,0,0,1,.27-.85l.12-.25a5.29,5.29,0,0,1,.29-.52Z" transform="translate(0)"/><path class="cls-3" d="M209.05,94a8.5,8.5,0,0,0,4,2.17,52.91,52.91,0,0,0,8.61.45,78,78,0,0,0,8.54-.34,8.92,8.92,0,0,0,1.44-.35c.15,0,.28-.1.42-.15a8.59,8.59,0,0,0,.88-.37l.42-.23q.39-.24.75-.51c.12-.09.24-.17.34-.26a6.8,6.8,0,0,0,.8-.81l.12-.11v0a7.56,7.56,0,0,0,.73-1.08l0,0c.06-.12.11-.25.17-.37s.25-.5.35-.77a.31.31,0,0,0,.05-.1,8.26,8.26,0,0,0,.33-1l.06-.21c0-.1,0-.23.06-.35s0,0,0-.06a6.45,6.45,0,0,0,.09-.69l0-.2c0-.23,0-.49.07-.75v-.12c0-.3,0-.62.06-1,0-.1,0-.21,0-.32s0-.49,0-.75,0-.27,0-.4,0-.51,0-.77,0-.26,0-.4c0-.31,0-.62,0-.94a1.93,1.93,0,0,1,0-.24c0-.4,0-.8,0-1.21V79.32c0-.13,0-.26,0-.39,0-.3,0-.59,0-.88v-.24c0-.37,0-.72,0-1.06a1.34,1.34,0,0,0,0-.2c0-.27,0-.52,0-.77a2.53,2.53,0,0,0,0-.28c0-.2,0-.4,0-.58s0-.17,0-.26,0-.35,0-.51a.91.91,0,0,0,0-.17c0-.19,0-.36,0-.49v0a8.33,8.33,0,0,0-.23-1.34c0-.14-.08-.27-.12-.41s-.12-.45-.2-.66-.07-.14-.1-.22-.11-.23-.16-.35a7.64,7.64,0,0,0-.47-.83,3,3,0,0,0-.19-.3s-.06-.11-.1-.15a7,7,0,0,0-.76-.89l-6-6a7.5,7.5,0,0,1,.85,1l.2.3a6.85,6.85,0,0,1,.46.84,2.6,2.6,0,0,1,.16.34,9.18,9.18,0,0,1,.31.88c0,.14.09.27.12.41a11.71,11.71,0,0,1,.23,1.34c0,.15,0,.33,0,.53s0,.13,0,.19,0,.31,0,.49h0L227,64.23a5.53,5.53,0,0,0-3.13-1.5,68.93,68.93,0,0,0-7.75-.3c-3.08,0-6.15.09-7.5.23a7,7,0,0,0-1.07.22l-.31.1c-.22.08-.44.16-.65.26l-.32.17c-.18.11-.36.22-.53.34l-.28.22a4.78,4.78,0,0,0-.45.45l-.17.17-.06.09a3.27,3.27,0,0,0-.25.36c-.06.09-.13.18-.19.28l0,.11c-.05.1-.09.2-.14.31a3,3,0,0,0-.15.31c0,.06,0,.12,0,.18s-.08.25-.11.38a2.29,2.29,0,0,0-.09.28c0,.15-.06.29-.08.44s-.06.38-.08.6,0,.17,0,.26,0,.27,0,.43v.07c0,.07,0,.16,0,.24s0,.39,0,.6,0,.21,0,.32,0,.41,0,.63,0,.23,0,.36,0,.46,0,.7,0,.22,0,.33l0,1.07v.2c0,.3,0,.61,0,.92v.41c0,.24,0,.48,0,.72v1.57c0,.32,0,.63,0,.94v.15c0,.36,0,.71,0,1.05v.27c0,.24,0,.48,0,.71s0,.22,0,.32,0,.4,0,.59,0,.2,0,.29,0,.38,0,.56a1.27,1.27,0,0,1,0,.2c0,.22,0,.42,0,.6h0c0,.21,0,.38.06.52a6.09,6.09,0,0,0,.31,1.19s0,.1,0,.15a.6.6,0,0,0,.06.11,4.65,4.65,0,0,0,.56,1l0,0A4.23,4.23,0,0,0,205,86l4.41,4.43a16.36,16.36,0,0,1-2.45-.29,10,10,0,0,1-1.17-.38A8,8,0,0,1,203,88h0Zm22.39-24.82c0,.08,0,.15,0,.22s0,.21,0,.32,0,.46,0,.7a2.26,2.26,0,0,0,0,.26c0,.22,0,.46,0,.69l-2.74-2.74c.47,0,.88.07,1.17.11A6.32,6.32,0,0,1,231.44,69.21Zm-6.26-.7s-.05,0-.09.06l-.08,0a1.91,1.91,0,0,1-.67.14,2,2,0,0,1-.87-.25Zm-3,0h1.14l5.73,5.75a1.84,1.84,0,0,0,1.3.54,1.86,1.86,0,0,0,.67-.13l.09,0a2.44,2.44,0,0,0,.41-.24v1c0,.13,0,.25,0,.38,0,.4,0,.8,0,1.19v.24c0,.32,0,.64,0,.95,0,.13,0,.26,0,.39l0,.77c0,.13,0,.27,0,.39s0,.52,0,.77c0,.1,0,.21,0,.31,0,.35,0,.67-.06,1,0,0,0,.06,0,.09,0,.27,0,.52-.07.76,0,.06,0,.13,0,.19,0,.25-.06.49-.09.69a.13.13,0,0,0,0,.06c0,.21-.08.41-.12.56a11.71,11.71,0,0,1-.38,1.14c-.11.26-.23.51-.35.76s-.13.29-.21.42a9.08,9.08,0,0,1-.72,1.07,1.59,1.59,0,0,1-.13.13,7.65,7.65,0,0,1-.8.81l-.34.26a6.19,6.19,0,0,1-.75.51l-.42.23c-.29.14-.58.26-.89.38l-.41.15a10.45,10.45,0,0,1-1.44.34,75.07,75.07,0,0,1-8.55.35c-2,0-4,0-5.57-.13v0a2.6,2.6,0,0,0-.1-.25,7.14,7.14,0,0,1-.31-1.19c0-.14,0-.32-.06-.52s0-.39,0-.62a1.27,1.27,0,0,1,0-.2c0-.17,0-.35,0-.55s0-.2,0-.3,0-.38,0-.58,0-.22,0-.33,0-.44,0-.67,0-.21,0-.32c0-.33,0-.67,0-1V82.42c0-.25,0-.5,0-.75V80.48c0-.12,0-.24,0-.36,0-.32,0-.63,0-1V79q0-.55,0-1.08c0-.1,0-.19,0-.29,0-.25,0-.51,0-.75s0-.22,0-.33l0-.65c0-.1,0-.21,0-.31s0-.42,0-.62,0-.15,0-.22,0-.35,0-.52a2.12,2.12,0,0,0,0-.24c0-.23,0-.43.08-.6s.11-.49.17-.73.07-.25.11-.37.13-.34.2-.5l.15-.31c.07-.13.16-.26.24-.39s.15-.24.24-.36.15-.16.23-.25a4.78,4.78,0,0,1,.45-.45,3.15,3.15,0,0,1,.29-.22,3.58,3.58,0,0,1,.52-.34l.33-.17a6.11,6.11,0,0,1,.64-.26l.32-.11a6.86,6.86,0,0,1,1.06-.21C216,68.57,219.1,68.48,222.19,68.48Z" transform="translate(0)"/><path class="cls-4" d="M224.35,65h0a1.85,1.85,0,0,1,1.84,1.86,1.89,1.89,0,0,1-1.88,1.86,1.86,1.86,0,0,1,0-3.72Z" transform="translate(0)"/><path class="cls-4" d="M231.34,67.4c.23,2.44.38,14-.34,16.66a7.92,7.92,0,0,1-6.84,6.2,75.07,75.07,0,0,1-8.55.35,52.67,52.67,0,0,1-8.61-.46,7.79,7.79,0,0,1-6.17-6.76c-.41-2.61-.46-14.75.3-17.39a7.88,7.88,0,0,1,6.75-6,60,60,0,0,1,7.76-.35c2.9,0,5.81.08,7.57.17a8.53,8.53,0,0,1,5.66,2.32A8.18,8.18,0,0,1,231.34,67.4Zm-3,15.48a112.25,112.25,0,0,0,.19-15.21,5.2,5.2,0,0,0-4.64-4.94,68.93,68.93,0,0,0-7.75-.3c-3.08,0-6.15.09-7.5.23a5.31,5.31,0,0,0-4.95,4.67A105.24,105.24,0,0,0,203.6,83a5,5,0,0,0,3.82,4.38,47.67,47.67,0,0,0,8.34.46c3.25,0,6.44-.11,7.64-.24a5.29,5.29,0,0,0,5-4.69" transform="translate(0)"/><path class="cls-4" d="M216.1,67.18A7.88,7.88,0,0,1,224,75.13a8,8,0,0,1-8,7.94,7.86,7.86,0,0,1-7.88-7.95A8,8,0,0,1,216.1,67.18ZM216,80.26a5.18,5.18,0,0,0,5.18-5.09,5.08,5.08,0,0,0-5-5.19h-.05a5.18,5.18,0,0,0-5.18,5.09,5.09,5.09,0,0,0,5.05,5.19h0" transform="translate(0)"/><path class="cls-3" d="M54.37,160.06c.05,0,.1,0,.15,0s-.09.34-.13.49a1.21,1.21,0,0,0,0,.18c0,.16-.09.31-.13.46a1.46,1.46,0,0,0-.05.2c0,.15-.09.3-.13.44a.56.56,0,0,0,0,.12c-.05.18-.11.34-.16.51a.49.49,0,0,0,0,.11c0,.13-.09.25-.13.37l0,.11c-.12.32-.24.62-.39.93h0c-.14.31-.31.63-.49,1l-.13.23a27.11,27.11,0,0,1-2.11,3.12l-.1.12s0,0,0,0a.22.22,0,0,1-.16.07.34.34,0,0,1-.17-.09l6,6.05a.38.38,0,0,0,.18.09.22.22,0,0,0,.15-.08l0,0s0,0,0,0l.07-.09a26.46,26.46,0,0,0,2.12-3.13l.1-.18,0,0c.19-.34.35-.65.5-1h0c.15-.31.28-.62.4-.93v0l0-.07.13-.36,0-.13c.06-.16.11-.33.16-.5a.65.65,0,0,0,0-.13c.05-.14.09-.29.13-.44a1.33,1.33,0,0,0,0-.19c.05-.14.09-.29.13-.45a1.46,1.46,0,0,0,0-.2c.06-.22.12-.44.18-.68l.06-.24c.06-.2.11-.41.16-.62l.18-.71.12-.43c.08-.34.17-.68.27-1.06l.06-.17.62.63a6.3,6.3,0,0,0,4.5,1.69,9.57,9.57,0,0,0,7.36-3.71h0a12.22,12.22,0,0,0,.94-1.36l.13-.22a1.4,1.4,0,0,0,.1-.16,12.51,12.51,0,0,0,.6-1.22l.11-.27c.06-.13.12-.26.17-.39.12-.33.23-.66.33-1l0-.09c.12-.38.21-.75.3-1.13,0-.08,0-.17,0-.26s.07-.38.1-.57.11-.59.14-.88a5.43,5.43,0,0,0,.06-.55c0-.11,0-.24,0-.35s0-.25,0-.38,0-.46,0-.68a5.8,5.8,0,0,0,0-.59c0-.2,0-.39,0-.57s0-.17,0-.25,0-.31,0-.45a11.34,11.34,0,0,0-.34-1.51c0-.14-.09-.27-.14-.41s-.09-.31-.14-.46-.19-.38-.28-.58-.15-.35-.24-.51a11.79,11.79,0,0,0-.64-1.08c-.08-.1-.14-.22-.21-.32l0-.06a12.84,12.84,0,0,0-1.08-1.26l-6-6A12.62,12.62,0,0,1,69,139c.07.11.13.22.2.32a10,10,0,0,1,.65,1.08c.09.17.16.34.24.51a10.28,10.28,0,0,1,.42,1c0,.14.09.27.13.41A11.38,11.38,0,0,1,71,143.9c0,.2,0,.46.06.71s0,.36,0,.56v.59c0,.22,0,.45,0,.68s0,.48,0,.73l-.06.55c0,.29-.09.58-.14.88s-.07.38-.11.58c-.09.45-.2.92-.34,1.38l0,.1c-.14.46-.31.92-.5,1.38l-.12.28a13.51,13.51,0,0,1-.69,1.37,1.64,1.64,0,0,1-.14.22,12.33,12.33,0,0,1-.94,1.37,9.93,9.93,0,0,1-5.21,3.41v-.11a2.87,2.87,0,0,1,.1-.75c.13-.52.27-1,.41-1.49.06-.19.11-.37.17-.55.1-.35.21-.69.31-1s.18-.6.27-.88.1-.32.14-.47.15-.57.22-.83l.06-.24v0a9.19,9.19,0,0,0,.18-1.07.5.5,0,0,1,0-.12,1.92,1.92,0,0,1,0-.24v-.41a.57.57,0,0,1,0-.13,3.55,3.55,0,0,0-.08-.47c0-.16-.08-.3-.13-.44a1.4,1.4,0,0,1-.09-.17c0-.1-.11-.2-.17-.3l-.09-.17a3.22,3.22,0,0,0-.24-.28l-4.08-4.1h0a10.64,10.64,0,0,1,4.43-.94,10.15,10.15,0,0,1,3.35.55,7.4,7.4,0,0,1,2.8,1.74h0l-6-6.05a8.66,8.66,0,0,0-6.16-2.29,10.59,10.59,0,0,0-4.42.94,10.12,10.12,0,0,0-1,.52l-.31.22c-.19.13-.39.25-.57.39l-.33.29c-.15.13-.31.26-.45.4s-.2.22-.3.33-.27.28-.39.42l0,0,0,.05a10.4,10.4,0,0,0-.81,1.19,1.48,1.48,0,0,0-.08.13l0,.09a9.6,9.6,0,0,0-.52,1.13.15.15,0,0,0,0,.07.85.85,0,0,0-.06.17c-.11.31-.2.62-.28.93,0,.06,0,.12-.05.18s0,.08,0,.11a9.55,9.55,0,0,0-.17,1.16.06.06,0,0,0,0,0v.11a8.49,8.49,0,0,0,0,1.13.75.75,0,0,0,0,.15s0,.06,0,.09c0,.22.06.44.11.65a2,2,0,0,0,0,.24,7.1,7.1,0,0,0,.25.82v0l0,0a4.75,4.75,0,0,0,.49.92l.06.12.14.18c.08.1.16.19.22.28l.07.1a1.06,1.06,0,0,1,.1.17.58.58,0,0,1,.06.17s0,0,0,0a.8.8,0,0,1,0,.26c-.16.62-.31,1.24-.48,1.85a.68.68,0,0,1-.21.34A.18.18,0,0,1,49,154a.58.58,0,0,1-.34.12.91.91,0,0,1-.35-.07,5.38,5.38,0,0,1-1.81-1.21l6,6A5.75,5.75,0,0,0,54.37,160.06Zm1.94-13,.06-.07c.12-.15.25-.29.38-.43l.3-.32c.15-.15.31-.28.47-.42l.31-.27.58-.4.12-.08a.57.57,0,0,1,0,.13,9.08,9.08,0,0,1-.17,1.07c0,.08-.05.17-.07.26-.06.27-.13.54-.22.83s-.09.31-.13.47-.18.58-.27.89-.21.66-.31,1c-.06.18-.11.36-.17.55-.14.48-.28,1-.42,1.49,0,0,0,.07,0,.11a2.78,2.78,0,0,0-.08.49v.32c0,.07,0,.13,0,.19a13.06,13.06,0,0,0,.15.64.7.7,0,0,0,0,.14,1.18,1.18,0,0,0,.11.19,3.24,3.24,0,0,0,.17.32.83.83,0,0,1,.07.13,3.11,3.11,0,0,0,.29.33l4.23,4.25a8,8,0,0,1-1.18.09,6.51,6.51,0,0,1-3.89-1.2l-1.2-1.21-.07.18h0l-.2-.3a5.06,5.06,0,0,1-.49-.92l0-.07a5.72,5.72,0,0,1-.26-.83c0-.07,0-.15,0-.23s-.08-.43-.1-.65,0-.16,0-.24a8.51,8.51,0,0,1,0-1.13.81.81,0,0,0,0-.16,7.83,7.83,0,0,1,.18-1.15c0-.1,0-.19.07-.29a8.22,8.22,0,0,1,.28-.93c0-.08,0-.17.08-.25a10.5,10.5,0,0,1,.53-1.13c0-.07.09-.14.13-.22A11.14,11.14,0,0,1,56.31,147.07Z" transform="translate(0)"/><path class="cls-4" d="M58.38,134.08a16,16,0,0,1,1.83.11c6.18.69,10.05,4.92,10.75,9.71.32,2.19,0,7.57-3.06,11.38a9.62,9.62,0,0,1-7.36,3.7A6.3,6.3,0,0,1,56,157.26a6.66,6.66,0,0,1-.55-.69l-.09.26c-1.3,5-1.46,6.06-2.77,8.38a27.11,27.11,0,0,1-2.11,3.12c-.08.1-.16.23-.3.23s-.25-.22-.27-.38a26.48,26.48,0,0,1-.24-4.54c.08-2,.33-2.66,3-13.4a.68.68,0,0,0-.06-.45,7.68,7.68,0,0,1-.15-5,3.93,3.93,0,0,1,3.55-3,2.52,2.52,0,0,1,2.5,2.07c.43,1.87-.77,4.32-1.71,7.94a3,3,0,0,0,3.14,3.82,4.38,4.38,0,0,0,2.6-.9c2.79-2,3.9-6.83,3.73-10.24-.26-4.89-4.19-7-8.14-7a10.59,10.59,0,0,0-4.42.94c-5.45,2.51-6.74,9.23-4.31,12.32.3.38.55.62.44,1-.16.62-.31,1.24-.48,1.85a.63.63,0,0,1-.62.51.91.91,0,0,1-.35-.07,5.52,5.52,0,0,1-2.25-1.71c-2.07-2.57-2.62-7.67.16-12A14.25,14.25,0,0,1,58.38,134.08Z" transform="translate(0)"/><path class="cls-3" d="M158.66,154.7l0-.55c0-.06,0-.12,0-.18,0-.45-.1-.91-.18-1.36a12.93,12.93,0,0,0-.32-1.4l-.12-.43c-.1-.32-.2-.63-.32-.94l-.08-.24s0-.1-.07-.16a16.28,16.28,0,0,0-.79-1.69l-.15-.26a17.55,17.55,0,0,0-1.05-1.64h0A15.93,15.93,0,0,0,154,144l-6-6a18,18,0,0,1,1.56,1.82v0a15.94,15.94,0,0,1,1.06,1.65c0,.08.1.16.14.25a14.6,14.6,0,0,1,.79,1.7c.06.13.11.26.16.39.11.31.22.63.31,1,0,.14.09.28.13.42.12.46.23.93.31,1.4s.15,1,.19,1.55c0,.18,0,.36,0,.54,0,.34,0,.68,0,1s0,.4,0,.59c0,.35,0,.69-.08,1,0,.14,0,.28-.05.42a13.79,13.79,0,0,1-.25,1.43s0,0,0,.08c-.1.44-.23.88-.37,1.31,0,.14-.09.27-.13.4-.12.34-.25.67-.39,1-.06.13-.11.26-.16.39-.2.43-.42.86-.65,1.28l-.16.26c-.2.34-.41.68-.63,1l-5.34-5.36a.38.38,0,0,1,.08.13v0a.43.43,0,0,1,0,.12,3.8,3.8,0,0,1-.07.85.28.28,0,0,0,0,.09,4.17,4.17,0,0,1-.23.68l-.06.12a3,3,0,0,1-1,1.15,1.48,1.48,0,0,1-.21.13,3.53,3.53,0,0,1-.5.28l-.26.1a3.45,3.45,0,0,1-.52.16l-.23.06a4.38,4.38,0,0,1-.71.07h-.23c-2.28-.08-5.5-1.38-8.41-4.3l6,6a14.55,14.55,0,0,0,7.08,4.13l-.31.2c-.25.16-.52.31-.78.45l-.57.31c-.28.14-.57.27-.86.39l-.57.24c-.33.13-.67.24-1,.34-.17.05-.34.12-.51.16a13.75,13.75,0,0,1-1.57.36,16.65,16.65,0,0,1-2.88.25,16.12,16.12,0,0,1-5.61-1l0-.14c.06-.16.1-.3.14-.44s0-.12,0-.18a.5.5,0,0,0,0-.12.36.36,0,0,1,0-.1,1.86,1.86,0,0,0,0-.41s0,0,0,0a2.87,2.87,0,0,0-.16-.69,0,0,0,0,1,0,0,3.56,3.56,0,0,0-.29-.59,13.59,13.59,0,0,1-.75-1.6c-.05-.12-.08-.25-.12-.38A13.43,13.43,0,0,1,129,159c-.05-.21-.08-.42-.12-.63s-.14-.73-.18-1.1-.08-.8-.09-1.19c0-.05,0-.1,0-.15,0-.44,0-.89.07-1.33a13.08,13.08,0,0,1,.27-1.79v0a14.81,14.81,0,0,1,.5-1.69l.21-.48a11.78,11.78,0,0,1,.58-1.25c.12-.23.24-.46.38-.68l.24-.39c.21-.32.43-.63.66-.94.07-.08.12-.16.18-.24.3-.36.62-.72.95-1.05l.27-.26.36-.32c0,.13.11.25.15.38h0a.77.77,0,0,1,.05.42v0a1.48,1.48,0,0,1-.16.44v0s-.07.09-.09.14-.19.28-.32.45l-.49.58s0,0,0,0a.91.91,0,0,0-.11.16h0v0a.25.25,0,0,0,0,.07.29.29,0,0,0,0,.09.08.08,0,0,0,0,0v0a0,0,0,0,0,0,0v.11l0,.05a.19.19,0,0,0,0,.08.17.17,0,0,0,0,.07l.07.14c.24.4.49.79.76,1.16l0,.05a11.72,11.72,0,0,0,1,1.19l6,6a11.94,11.94,0,0,1-1-1.2,12.59,12.59,0,0,1-.81-1.2,1.11,1.11,0,0,1-.08-.21.31.31,0,0,1,0-.08.62.62,0,0,1,0-.19v0a.68.68,0,0,1,.07-.2v0a2.17,2.17,0,0,1,.15-.22l.47-.54s0,0,0,0a4.78,4.78,0,0,0,.32-.44,1,1,0,0,0,.09-.13h0v0c0-.07.07-.14.09-.2a1.09,1.09,0,0,0,0-.17.17.17,0,0,0,0-.07v-.06a.38.38,0,0,0,0-.15,1,1,0,0,0-.05-.23h0l-.24-.64-.16-.39c-.29-.73-.59-1.45-.9-2.17a1.48,1.48,0,0,0-.16-.27l-.09-.11-3.64-3.65c.28-.21.57-.42.87-.61l.15-.1a11.43,11.43,0,0,1,1.3-.68l.38-.17c.34-.15.7-.28,1.06-.41l.43-.13a14.49,14.49,0,0,1,1.51-.38,14.15,14.15,0,0,1,2.49-.23,13.52,13.52,0,0,1,9.59,4l-6-6.05a13.55,13.55,0,0,0-9.59-4,14.24,14.24,0,0,0-2.5.22,14.49,14.49,0,0,0-1.51.38l-.42.14c-.36.12-.72.25-1.07.4l-.38.17a13.5,13.5,0,0,0-1.3.69l-.14.09c-.37.23-.72.48-1.06.74l-.34.27a9.49,9.49,0,0,0-.82.73,3.2,3.2,0,0,0-.27.25q-.48.48-.9,1l0,.07-.18.23c-.23.31-.46.62-.66.94-.09.13-.17.26-.25.39l-.24.39c0,.09-.08.2-.13.29-.22.41-.41.83-.59,1.25-.05.12-.11.22-.15.33s0,.11,0,.16a13.74,13.74,0,0,0-.51,1.69v0h0a15.46,15.46,0,0,0-.27,1.79c0,.06,0,.11,0,.17,0,.39,0,.78,0,1.17,0,0,0,.09,0,.14,0,.32,0,.64,0,1,0,.08,0,.15,0,.23,0,.37.11.74.18,1.11,0,.2.08.41.13.62a13.35,13.35,0,0,0,.41,1.32c0,.11.06.23.11.34a.05.05,0,0,0,0,0,12.88,12.88,0,0,0,.75,1.6,3.81,3.81,0,0,1,.29.62,2.49,2.49,0,0,1,.17.69,2.62,2.62,0,0,1,0,.56.36.36,0,0,0,0,.11,3.15,3.15,0,0,1-.16.62c-.21.58-.37,1.17-.53,1.77s-.32,1.23-.51,1.89h0l2.21,2.22c-3.19.82-5.32,1.4-6.06,1.55l6,6c.88-.17,3.78-1,8.13-2.07a1.12,1.12,0,0,1,.32,0,1.51,1.51,0,0,1,.68.15A16.45,16.45,0,0,0,145,171.83a15.61,15.61,0,0,0,1.57-.36l.51-.16c.34-.11.67-.21,1-.34s.38-.16.57-.24.58-.25.86-.39l.57-.31c.27-.14.53-.29.79-.45l.54-.36c.25-.17.49-.34.72-.52l.51-.4c.23-.19.45-.39.67-.59l.46-.44c.22-.21.42-.44.63-.66s.27-.3.4-.46L155,166c.16-.2.31-.42.46-.63s.23-.29.33-.44c.23-.33.44-.67.64-1l.16-.26,0,0q.35-.62.63-1.26c.06-.12.11-.25.16-.38s.17-.38.25-.58.09-.28.14-.43l.14-.39c.13-.43.26-.87.36-1.31a.24.24,0,0,0,0-.08v0c.1-.46.18-.94.25-1.42,0-.13,0-.27.05-.41s0-.37.06-.56,0-.32,0-.48,0-.39,0-.59S158.67,155,158.66,154.7Z" transform="translate(0)"/><path class="cls-4" d="M130.72,142a6,6,0,0,1,.95.11c.19,0,.36.3.46.5.45,1.06.9,2.12,1.29,3.2.22.57-.18,1.12-1,2.07a.71.71,0,0,0-.12.93,11.06,11.06,0,0,0,5.66,4.89.89.89,0,0,0,.31.06.69.69,0,0,0,.55-.3c1.06-1.27,1.36-1.83,1.78-1.83a.79.79,0,0,1,.36.1c3.3,1.58,3.56,1.64,3.57,2a3.61,3.61,0,0,1-3.79,3.69h-.23c-3.2-.11-8.28-2.64-11.73-8.71a4.93,4.93,0,0,1,.81-6.29A1.57,1.57,0,0,1,130.72,142Z" transform="translate(0)"/><path class="cls-4" d="M152.41,146.56a16.51,16.51,0,0,1-23.62,17.73,1.57,1.57,0,0,0-.68-.15,1.15,1.15,0,0,0-.33,0c-4.35,1.09-7.24,1.9-8.13,2.08.2-.71.36-1.33.53-2,.56-2,1.14-4,1.66-6a1.41,1.41,0,0,0-.08-1,16.5,16.5,0,0,1,10.92-23.73,16.69,16.69,0,0,1,3.85-.45A16.17,16.17,0,0,1,152.41,146.56Zm-14.08,16.59a13.82,13.82,0,0,0,11.51-15.57,13.55,13.55,0,0,0-13.41-11.67,14.24,14.24,0,0,0-2.5.22,13.77,13.77,0,0,0-9.67,20.1,2.83,2.83,0,0,1,.28,2.6c-.41,1.16-.67,2.35-1,3.66,1.64-.43,3.14-.8,4.64-1.22a1.43,1.43,0,0,1,.39-.06,1.47,1.47,0,0,1,.73.22,13.42,13.42,0,0,0,6.84,1.9,14.26,14.26,0,0,0,2.23-.18" transform="translate(0)"/><path class="cls-3" d="M238,148.86v0l-6-6.05v.13l0,4.39,3.52,3.53h-3.55l0,3.52-3.51-3.52h-4L221.54,148l1.79-1.77-6-6c-1.3,1.27-2.54,2.52-3.8,3.76a7,7,0,0,0-3.78-1.83,8.41,8.41,0,0,0-1.11-.08,7.73,7.73,0,0,0-1.18.11l-.27,0a6.6,6.6,0,0,0-1.1.3l-.09,0a7,7,0,0,0-1,.45l-.23.13a7.35,7.35,0,0,0-.91.63l-.12.11a7.93,7.93,0,0,0-.72.7,1.54,1.54,0,0,0-.17.19l-.12.13c-.09.11-.16.24-.24.35s-.3.42-.44.64l-.1.15c-.09.16-.15.33-.23.49s-.14.29-.2.44a1.39,1.39,0,0,0-.06.13,7.21,7.21,0,0,0-.31,1l0,.15a6.93,6.93,0,0,0-.16,1h0a7.75,7.75,0,0,0,0,1.18v0a7.33,7.33,0,0,0,.23,1.24c0,.12.07.24.11.36a4.64,4.64,0,0,0,.16.53c0,.11.1.2.14.31l.17.36a6.8,6.8,0,0,0,.46.79c.06.09.11.19.17.27a.53.53,0,0,1,.06.1,8.71,8.71,0,0,0,.75.86l6,6a8.14,8.14,0,0,1-.8-1c-.06-.09-.12-.18-.17-.27a6.8,6.8,0,0,1-.46-.79c-.06-.12-.12-.24-.17-.36a8.64,8.64,0,0,1-.31-.85c0-.12-.08-.23-.11-.35a7.78,7.78,0,0,1-.22-1.28,6.65,6.65,0,0,1,0-1.18,6.53,6.53,0,0,1,.19-1.16,7.43,7.43,0,0,1,.36-1.13c.06-.15.14-.3.21-.44a6.42,6.42,0,0,1,.33-.64c.13-.22.28-.43.43-.64s.23-.33.36-.49a1.54,1.54,0,0,0,.17-.19,9.35,9.35,0,0,1,.72-.69l.12-.11a10,10,0,0,1,.92-.64l.23-.13a7.53,7.53,0,0,1,.95-.45l.09,0a8.14,8.14,0,0,1,1.1-.31l.28,0a7.51,7.51,0,0,1,1.18-.1,8.26,8.26,0,0,1,1.1.08,6.93,6.93,0,0,1,3.78,1.83l1.37-1.35c0,.12,0,.24,0,.36,0,.32,0,.64,0,.95s0,.37,0,.55,0,.54,0,.81a13.77,13.77,0,0,1-.27,1.82c0,.16-.08.32-.12.48-.1.39-.21.77-.34,1.15-.06.17-.12.34-.19.51-.16.39-.34.76-.53,1.14l-4-4h-6.93l6,6h3.59q-.27.33-.57.63c-.19.2-.36.41-.56.59s-.59.47-.89.69-.39.31-.6.44a9.06,9.06,0,0,1-1.11.59c-.18.09-.36.21-.55.29a15,15,0,0,1-1.82.62,14.27,14.27,0,0,1-3.49.44l-.75,0a12.65,12.65,0,0,1-6.89-2.45,13.92,13.92,0,0,1-1.58-1.36l6,6a15,15,0,0,0,1.58,1.36,12.65,12.65,0,0,0,6.89,2.45l.75,0a13.89,13.89,0,0,0,3.5-.45,12.06,12.06,0,0,0,1.81-.62c.2-.08.37-.19.56-.28a9.71,9.71,0,0,0,1.1-.59c.21-.13.4-.29.6-.44s.61-.44.89-.69a7.81,7.81,0,0,0,.56-.59c.21-.22.44-.41.63-.65l.25-.32a13.81,13.81,0,0,0,.85-1.3l.05-.07c0-.09.08-.19.13-.28a10.79,10.79,0,0,0,.53-1.15l.1-.21c0-.1.06-.2.09-.3.13-.38.25-.77.35-1.15,0-.11.07-.21.09-.32s0-.11,0-.16a13.78,13.78,0,0,0,.28-1.82s0-.06,0-.09c0-.24,0-.48,0-.73s0-.36,0-.54,0-.63,0-.95c0-.15,0-.3,0-.44v0c0-.26-.07-.51-.11-.77l1.57,1.58h0l6,6h3.53v-.12l0-4.38h4.51v-.14l0-3.27v-.12Z" transform="translate(0)"/><path class="cls-4" d="M208.9,136.79a12.29,12.29,0,0,1,6.12,1.68,16.45,16.45,0,0,1,2.29,1.68c-1.3,1.27-2.54,2.52-3.8,3.76a7,7,0,0,0-3.78-1.83,8.41,8.41,0,0,0-1.11-.08,7.77,7.77,0,0,0-7.45,6,7.11,7.11,0,0,0-.18,2.34,7.74,7.74,0,0,0,5.29,6.73,7.5,7.5,0,0,0,2.26.34h.53a7.61,7.61,0,0,0,3.78-1.21,6,6,0,0,0,2.57-3.9h-6.93c0-.17,0-3.4,0-5v-.22h12.17a14,14,0,0,1-2.3,10.92,11.42,11.42,0,0,1-6.4,4.18,14.27,14.27,0,0,1-3.49.44l-.75,0a12.83,12.83,0,0,1-11.88-10.18,11.35,11.35,0,0,1-.25-3.48,13.12,13.12,0,0,1,9.88-11.82,10.48,10.48,0,0,1,2.14-.34C208.07,136.82,208.49,136.79,208.9,136.79Z" transform="translate(0)"/><polygon class="cls-4" points="232 142.79 232 142.92 231.97 147.31 236.35 147.31 236.49 147.31 236.49 147.43 236.46 150.7 236.46 150.84 236.32 150.84 231.94 150.84 231.91 155.22 231.91 155.34 231.78 155.34 228.5 155.34 228.38 155.34 228.38 155.22 228.41 150.84 224.03 150.84 223.89 150.84 223.9 150.7 223.92 147.43 223.92 147.31 224.06 147.31 228.44 147.31 228.47 142.92 228.47 142.79 228.6 142.79 231.88 142.79 232 142.79"/><path class="cls-3" d="M65.45,232.72a8.1,8.1,0,0,1,.13-.88l.09-.41.09-.3a4.3,4.3,0,0,1,.27-.62v0a4,4,0,0,1,.39-.53,1.54,1.54,0,0,1,.19-.17,2.06,2.06,0,0,1,.37-.29l.24-.14a2.66,2.66,0,0,1,.52-.19,1.6,1.6,0,0,1,.26-.08,4.62,4.62,0,0,1,1-.1,3.37,3.37,0,0,1,1.21.2,2.19,2.19,0,0,1,.84.53h0l-6-6.05a2.29,2.29,0,0,0-.92-.55l-4.86-4.88,0,2.59,2.34,2.35-.31.13a1.88,1.88,0,0,0-.24.14,2.72,2.72,0,0,0-.38.29l-.18.17-.09.09a4.27,4.27,0,0,0-.3.44h0a5.11,5.11,0,0,0-.22.48.83.83,0,0,0,0,.15,2.46,2.46,0,0,0-.09.29c0,.08,0,.16-.07.25a.9.9,0,0,0,0,.16,8.3,8.3,0,0,0-.12.89.5.5,0,0,0,0,.12v0c0,.31,0,.63,0,1l-.07,9.35H55.8l.1-12.87-2.6-2.61a2.7,2.7,0,0,0,.41-.05l.23-.07.45-.16.24-.13c.13-.08.25-.15.37-.24a1.24,1.24,0,0,0,.22-.18,2.76,2.76,0,0,0,.3-.29,1.14,1.14,0,0,0,.11-.11.67.67,0,0,0,.09-.14,1.77,1.77,0,0,0,.16-.22L56,220a1.47,1.47,0,0,0,.1-.22s0-.1.08-.16l0-.07a4,4,0,0,0,.14-.46v0s0-.07,0-.1a2.2,2.2,0,0,0,0-.37,4.09,4.09,0,0,0,0-.58.61.61,0,0,0,0-.13,3.2,3.2,0,0,0-.16-.68s0-.07,0-.1l0,0a3,3,0,0,0-.39-.7s0,0,0-.06a2.83,2.83,0,0,0-.32-.37l-6-6a3.65,3.65,0,0,1,.35.43,3.17,3.17,0,0,1,.38.7s0,.09,0,.13a3.85,3.85,0,0,1,.16.69,3.57,3.57,0,0,1,0,.47,3.08,3.08,0,0,1-.07.61.28.28,0,0,1,0,.09,2.9,2.9,0,0,1-.18.57l-.07.15a3.07,3.07,0,0,1-.2.36l-.15.23-.2.24-.3.3L49,215l-.37.23-.24.13a3.57,3.57,0,0,1-.46.16l-.23.07a3.47,3.47,0,0,1-.73.09,3.39,3.39,0,0,1-2.4-1L49.86,220l-.13,17.16H43.85l6,6.05h5.88l0-3.67,3.66,3.67h5.88l.07-9.35c0-.33,0-.65,0-1A1.1,1.1,0,0,0,65.45,232.72Z" transform="translate(0)"/><path class="cls-3" d="M77.77,230.44c0-.05,0-.1,0-.15a11.35,11.35,0,0,0-.18-1.21,2.74,2.74,0,0,0,0-.28,9,9,0,0,0-.35-1.21.32.32,0,0,0,0-.09c0-.12-.1-.23-.15-.35s-.09-.21-.14-.31l-.28-.47-.15-.24s0,0,0,0a5.76,5.76,0,0,0-.5-.59l-6-6a4.46,4.46,0,0,1,.52.63,1.82,1.82,0,0,1,.15.23c.1.16.2.31.28.47s.1.21.14.31.13.29.19.44a10.28,10.28,0,0,1,.35,1.22c0,.09,0,.18,0,.28.07.38.13.79.17,1.2l0,.21c.06.75.09,1.53.08,2.34l-.08,10.37H65.88l6,6.05h5.88l.08-10.37c0-.82,0-1.6-.09-2.34Z" transform="translate(0)"/><path class="cls-4" d="M47,208.85a3.38,3.38,0,0,1,3.38,3.41A3.44,3.44,0,0,1,47,215.67a3.4,3.4,0,0,1-3.39-3.41A3.45,3.45,0,0,1,47,208.85Z" transform="translate(0)"/><polygon class="cls-4" points="49.87 218.24 49.73 237.16 43.84 237.16 43.99 218.24 49.87 218.24"/><path class="cls-4" d="M64.85,217.78c6,0,7,3.91,7,9l-.08,10.38H65.88L66,228c0-2.2,0-5-3-5s-3.54,2.39-3.56,4.87l-.07,9.36H53.41l.15-18.93h5.63l0,2.59h.09A6.24,6.24,0,0,1,64.85,217.78Z" transform="translate(0)"/><path class="cls-3" d="M131.35,229.77a6.4,6.4,0,0,1,2.15,1.08l-6-6a6.4,6.4,0,0,0-2.15-1.08,3.26,3.26,0,0,1-1.1-.65l6,6.05A3.17,3.17,0,0,0,131.35,229.77Z" transform="translate(0)"/><path class="cls-3" d="M157.73,238.43v-.09a1.57,1.57,0,0,0,0-.16v0h0l-6-6v0s0,.1,0,.16,0,.06,0,.09v.1a1.62,1.62,0,0,1,0,.2h0a1,1,0,0,1-.09.22.08.08,0,0,1,0,0,1.53,1.53,0,0,1-.16.22l-.08.08-.2.17,0,0c-.05-.12-.11-.23-.16-.34s-.1-.19-.13-.29a6.64,6.64,0,0,1-.29-.93,2,2,0,0,1,.08-.44v0a1.32,1.32,0,0,1,.18-.33l0-.06.1-.1a1.73,1.73,0,0,1,.35-.31l.12-.09a4.16,4.16,0,0,1,.51-.28l.1,0,.5-.2.64-.24a3.7,3.7,0,0,0,.69-.34h0a2.1,2.1,0,0,0,.47-.38l0,0v0l0,0,.06-.1a.31.31,0,0,0,0-.1h0l0-.07s0-.06,0-.09v-.08h0a.85.85,0,0,0,0-.17.08.08,0,0,1,0,0l0-.06a.2.2,0,0,0,0-.09l-.11-.13h0l-3.84-3.85c0-.29,0-.57,0-.85a7.09,7.09,0,0,0,0-.81h0a8,8,0,0,0-.16-1,2.68,2.68,0,0,0-.07-.27c-.06-.25-.14-.49-.22-.73,0-.05,0-.11-.05-.16l0-.06a8.42,8.42,0,0,0-.4-.86l-.09-.15c-.13-.22-.27-.44-.42-.65a1,1,0,0,0-.08-.11.39.39,0,0,0-.08-.1,7.23,7.23,0,0,0-.67-.78h0l-6-6a8.44,8.44,0,0,1,.68.78l.15.21c.15.21.29.43.42.65l.09.16a8.26,8.26,0,0,1,.4.85c0,.07.05.15.08.22a6.18,6.18,0,0,1,.23.73c0,.09.05.18.07.27a8,8,0,0,1,.16,1c0,.27,0,.54,0,.82,0,1.73,0,3.43,0,4.79l2,2-.36.16-.09,0a5.29,5.29,0,0,0-.52.29l-.11.08a2.17,2.17,0,0,0-.36.31l-.07.06s0,0,0,0l0,.07a.5.5,0,0,0-.08.12l-.09.19h0v0a.88.88,0,0,0-.05.15l0,.22v.07a6.15,6.15,0,0,0,.27.9v0c0,.1.09.19.14.29a6.39,6.39,0,0,0,.31.65c.07.12.15.24.23.36l.33.52,0,0a11.17,11.17,0,0,0,.87,1l4,4-.14.07a4.57,4.57,0,0,1-.59.19l-.61.14-.18,0-.34.06-.29,0-.2,0-.31.06h0a1.23,1.23,0,0,0-.23.08l-.06,0a.38.38,0,0,0-.13.09l-.06.06-.05,0-.07.11,0,0v0a1.57,1.57,0,0,0-.13.29l0,0c0,.11,0,.19-.09.29s-.09.29-.13.41-.07.27-.1.36a.56.56,0,0,1-.13.23s0,0,0,0a.4.4,0,0,1-.24.07c-.32,0-1.78-.28-3.06-.28a4,4,0,0,0-1.52.23c-1.18.54-3.07,2.79-5.86,2.93-2.77-.14-4.62-2.39-5.8-2.93a3.93,3.93,0,0,0-1.51-.23,16,16,0,0,0-2.22.19l-1.87-1.88c-.36-.36-1-.26-2.4-.64a3.32,3.32,0,0,1-1.12-.47l-.21-.18h0l6,6a2.81,2.81,0,0,0,1.33.66c.32.08.59.14.83.18l2.33,2.34a.35.35,0,0,0,.27.09c.32,0,1.78-.28,3.06-.28a4,4,0,0,1,1.52.23c1.18.54,3,2.79,5.8,2.92,2.79-.13,4.67-2.38,5.86-2.92a3.93,3.93,0,0,1,1.51-.23c1.28,0,2.74.28,3.06.28a.37.37,0,0,0,.25-.08l0,0s0,0,0,0l0-.06,0-.1a.43.43,0,0,0,0,0,2.87,2.87,0,0,0,.11-.37c0-.11.08-.26.13-.41a3.18,3.18,0,0,1,.11-.33,3.11,3.11,0,0,1,.14-.31l0,0,.12-.16.06-.05.13-.1.06,0a1.57,1.57,0,0,1,.23-.09h0l.31-.07.2,0,.28-.05.35-.07.18,0L156,240a4.94,4.94,0,0,0,.58-.19l.15-.07.29-.15.13-.09.19-.16.08-.08,0,0,.12-.18v0l0,0,0-.1,0-.12v0h0a1,1,0,0,0,0-.16v-.13Z" transform="translate(0)"/><path class="cls-4" d="M136.5,209.25a7.91,7.91,0,0,1,7.92,8c0,1.73,0,3.43,0,4.79a3,3,0,0,0,.73.1,2.07,2.07,0,0,0,1-.22,2.85,2.85,0,0,1,1.23-.4,1.28,1.28,0,0,1,1,.45c.67.68-.05,1.33-1.13,1.75s-2.59.8-2.63,2.12a8.61,8.61,0,0,0,3.42,4.85,5.26,5.26,0,0,0,3.29,1.39h.29c.09,0,.15,0,.16,0,.06.26.27,1.29-1.68,1.78s-2.31.16-2.7,1.17-.26,1.44-.75,1.44c-.32,0-1.78-.28-3.06-.28a4,4,0,0,0-1.52.23c-1.18.54-3.07,2.79-5.86,2.93-2.77-.14-4.62-2.39-5.8-2.93a3.93,3.93,0,0,0-1.51-.23c-1.28,0-2.74.28-3.07.28-.48,0-.34-.43-.72-1.44s-.78-.67-2.7-1.17-1.71-1.52-1.64-1.78c0,0,.06-.06.14-.06h.3a5.42,5.42,0,0,0,3.33-1.39,8.83,8.83,0,0,0,3.49-4.85c0-1.32-1.59-1.72-2.6-2.12s-1.78-1.07-1.1-1.75a1.3,1.3,0,0,1,1-.45,2.85,2.85,0,0,1,1.23.4,2,2,0,0,0,1,.22,3.09,3.09,0,0,0,.74-.1c0-1.36,0-3.06,0-4.79a8.06,8.06,0,0,1,8-8Z" transform="translate(0)"/><path class="cls-3" d="M228.06,230l-6-6-9.9-5.18c0,3.45-.06,6.88-.08,10.35l6,6c0-3.47,0-6.89.08-10.35h0Z" transform="translate(0)"/><path class="cls-3" d="M238,231.81c0-.64,0-1.29,0-1.93v-.35c0-.63,0-1.25,0-1.85,0-.12,0-.24,0-.36,0-.61-.06-1.21-.11-1.77v0l-.06-.62c0-.14,0-.28,0-.41s-.06-.44-.1-.65,0-.21,0-.3-.08-.4-.12-.58,0-.17,0-.24c-.07-.25-.13-.47-.2-.65l0,0s0-.06-.05-.09a4,4,0,0,0-.4-.74l-.06-.1a4.23,4.23,0,0,0-.34-.4l-6-6a3.11,3.11,0,0,1,.39.49,3.75,3.75,0,0,1,.4.74c0,.05.05.09.07.14a6.34,6.34,0,0,1,.2.65l.06.29c0,.17.08.34.11.53s0,.23.06.34.06.39.09.61,0,.28,0,.41.05.42.07.65c0,.56.09,1.16.12,1.78,0,.11,0,.23,0,.35,0,.6,0,1.23,0,1.86v.34c0,.64,0,1.29,0,1.92v.07c0,.65-.06,1.28-.1,1.89,0,.15,0,.31,0,.46l0,.41c0,.24-.05.47-.08.69s0,.26,0,.39-.06.45-.1.67a3.06,3.06,0,0,1-.05.32c0,.29-.1.57-.15.83a.07.07,0,0,0,0,.05c-.06.26-.13.49-.19.71l-.06.18a4.07,4.07,0,0,1-.21.54,2.5,2.5,0,0,1-.23.39,2.13,2.13,0,0,1-.16.25,1.54,1.54,0,0,1-.17.19,4.54,4.54,0,0,1-.38.38l-.17.14a4.54,4.54,0,0,1-.63.41c-1.08.56-7.34.82-13.48.82-5.65,0-11.19-.22-12.49-.65a3.79,3.79,0,0,1-1.55-.93l6,6a3.72,3.72,0,0,0,1.55.93c1.29.42,6.83.65,12.48.65,6.14,0,12.4-.27,13.48-.82a4.89,4.89,0,0,0,.63-.41l.17-.14a4.68,4.68,0,0,0,.39-.38l.1-.1.06-.09.17-.25.12-.17L237,239c0-.1.09-.21.13-.32a1.87,1.87,0,0,0,.07-.22l.06-.18c.07-.22.13-.45.19-.71h0s0,0,0-.06c.06-.25.11-.53.16-.82,0-.11,0-.22.05-.32l.09-.67c0-.13,0-.26,0-.39s.05-.46.07-.69,0-.28,0-.42a1.79,1.79,0,0,1,0-.23c0-.07,0-.15,0-.22,0-.62.08-1.25.1-1.89Z" transform="translate(0)"/><path class="cls-4" d="M231.23,216c1.15,3,1.1,14-.28,16.94a3.85,3.85,0,0,1-1.74,1.76c-1.08.56-7.34.82-13.48.82-5.65,0-11.19-.22-12.49-.65a3.69,3.69,0,0,1-2.44-2.39c-1-2.92-1.27-15.16.8-17.58a4,4,0,0,1,2.69-1.41c2.46-.27,7.21-.4,11.89-.4,5.84,0,11.57.2,12.66.59A3.78,3.78,0,0,1,231.23,216Zm-19.17,13.14c3.32-1.73,6.63-3.44,10-5.17l-9.9-5.18c0,3.45-.06,6.88-.08,10.35" transform="translate(0)"/><path class="cls-4" d="M58.91,27.71a.49.49,0,0,0-.18.4.45.45,0,0,0,.22.4,4,4,0,0,0,1,.34,3.09,3.09,0,0,1,1.26.6,1.49,1.49,0,0,1,.45,1.17,1.55,1.55,0,0,1-.57,1.25,2.31,2.31,0,0,1-1.52.48,3.51,3.51,0,0,1-2.44-1l.76-.93a2.68,2.68,0,0,0,1.71.81.92.92,0,0,0,.55-.15.5.5,0,0,0,.2-.41.47.47,0,0,0-.22-.41,2.7,2.7,0,0,0-.84-.3,3.67,3.67,0,0,1-1.45-.62,1.45,1.45,0,0,1-.47-1.19A1.49,1.49,0,0,1,58,26.88a2.37,2.37,0,0,1,1.46-.44,3.51,3.51,0,0,1,1.14.2,3.13,3.13,0,0,1,1,.55l-.65.93a2.54,2.54,0,0,0-1.53-.56A.79.79,0,0,0,58.91,27.71Z" transform="translate(0)"/><path class="cls-4" d="M69.31,31.49a3.11,3.11,0,0,1-4.27,0,3,3,0,0,1,0-4.2,3.11,3.11,0,0,1,4.27,0,3,3,0,0,1,0,4.2Zm-.43-2.1a1.89,1.89,0,0,0-.49-1.3,1.57,1.57,0,0,0-1.21-.54,1.54,1.54,0,0,0-1.2.54,2,2,0,0,0,0,2.6,1.54,1.54,0,0,0,1.2.54,1.57,1.57,0,0,0,1.21-.54A1.87,1.87,0,0,0,68.88,29.39Z" transform="translate(0)"/><path class="cls-4" d="M75.59,31.15a1.87,1.87,0,0,0,1.54-.74l.82.84a3,3,0,0,1-2.3,1.1,3,3,0,0,1-2.17-.84,2.79,2.79,0,0,1-.85-2.1,2.84,2.84,0,0,1,.87-2.12,2.92,2.92,0,0,1,2.13-.85A3,3,0,0,1,78,27.51l-.79.9a1.88,1.88,0,0,0-1.51-.75,1.72,1.72,0,0,0-1.23.47,1.62,1.62,0,0,0-.51,1.26,1.74,1.74,0,0,0,.48,1.28A1.62,1.62,0,0,0,75.59,31.15Z" transform="translate(0)"/><path class="cls-4" d="M80.67,26.57h1.27v5.71H80.67Z" transform="translate(0)"/><path class="cls-4" d="M89.13,32.28l-.53-1.23H86.21l-.53,1.23H84.32l2.47-5.71H88l2.47,5.71Zm-1.72-4-.72,1.66h1.43Z" transform="translate(0)"/><path class="cls-4" d="M92.87,32.28V26.57h1.27v4.58h2.44v1.13Z" transform="translate(0)"/><path class="cls-4" d="M108.21,28.69l-1.54,3.12h-.76l-1.54-3.12v3.59H103.1V26.57h1.72l1.47,3.14,1.48-3.14h1.72v5.71h-1.28Z" transform="translate(0)"/><path class="cls-4" d="M116.72,26.57v1.14h-2.84v1.17h2.56V30h-2.56v1.18h2.93v1.13h-4.2V26.57Z" transform="translate(0)"/><path class="cls-4" d="M124,27.32a2.7,2.7,0,0,1,.82,2.08,2.82,2.82,0,0,1-.8,2.11,3.39,3.39,0,0,1-2.43.77h-2V26.57h2A3.37,3.37,0,0,1,124,27.32Zm-.94,3.39a1.64,1.64,0,0,0,.47-1.28,1.68,1.68,0,0,0-.47-1.29,2,2,0,0,0-1.44-.46h-.71v3.47h.81A1.85,1.85,0,0,0,123.09,30.71Z" transform="translate(0)"/><path class="cls-4" d="M127.67,26.57h1.27v5.71h-1.27Z" transform="translate(0)"/><path class="cls-4" d="M136.13,32.28l-.53-1.23h-2.39l-.54,1.23h-1.35l2.47-5.71H135l2.47,5.71Zm-1.72-4-.72,1.66h1.43Z" transform="translate(0)"/><path class="cls-4" d="M143.74,26.57H145v5.71h-1.27Z" transform="translate(0)"/><path class="cls-4" d="M150.76,31.15a1.87,1.87,0,0,0,1.53-.74l.82.84a3.07,3.07,0,0,1-4.47.26,2.79,2.79,0,0,1-.85-2.1,2.84,2.84,0,0,1,.87-2.12,2.92,2.92,0,0,1,2.13-.85,3,3,0,0,1,2.35,1.07l-.79.9a1.86,1.86,0,0,0-1.5-.75,1.72,1.72,0,0,0-1.23.47,1.63,1.63,0,0,0-.52,1.26,1.74,1.74,0,0,0,.49,1.28A1.59,1.59,0,0,0,150.76,31.15Z" transform="translate(0)"/><path class="cls-4" d="M160.51,31.49a2.92,2.92,0,0,1-2.13.85,2.89,2.89,0,0,1-2.13-.85,3,3,0,0,1,0-4.2,2.89,2.89,0,0,1,2.13-.85,2.92,2.92,0,0,1,2.13.85,3,3,0,0,1,0,4.2Zm-.43-2.1a1.89,1.89,0,0,0-.49-1.3,1.57,1.57,0,0,0-1.21-.54,1.55,1.55,0,0,0-1.2.54,2,2,0,0,0,0,2.6,1.55,1.55,0,0,0,1.2.54,1.57,1.57,0,0,0,1.21-.54A1.87,1.87,0,0,0,160.08,29.39Z" transform="translate(0)"/><path class="cls-4" d="M168.17,26.57h1.27v5.71h-1.27l-2.72-3.58v3.58h-1.28V26.57h1.19l2.81,3.68Z" transform="translate(0)"/><path class="cls-4" d="M173.9,27.71a.49.49,0,0,0-.18.4.45.45,0,0,0,.22.4,4,4,0,0,0,1,.34,3.09,3.09,0,0,1,1.26.6,1.49,1.49,0,0,1,.45,1.17,1.53,1.53,0,0,1-.58,1.25,2.28,2.28,0,0,1-1.51.48,3.53,3.53,0,0,1-2.45-1l.76-.93a2.72,2.72,0,0,0,1.71.81.88.88,0,0,0,.55-.15.47.47,0,0,0,.2-.41.48.48,0,0,0-.21-.41,2.7,2.7,0,0,0-.84-.3,3.79,3.79,0,0,1-1.46-.62,1.44,1.44,0,0,1-.46-1.19,1.48,1.48,0,0,1,.58-1.26,2.39,2.39,0,0,1,1.46-.44,3.57,3.57,0,0,1,1.15.2,3,3,0,0,1,1,.55l-.64.93a2.56,2.56,0,0,0-1.54-.56A.76.76,0,0,0,173.9,27.71Z" transform="translate(0)"/><path class="cls-4" d="M186.31,25.7h1.16L184,33.2h-1.15Z" transform="translate(0)"/><path class="cls-4" d="M194,32.28V26.57h1.28v4.58h2.43v1.13Z" transform="translate(0)"/><path class="cls-4" d="M205,31.49a3.11,3.11,0,0,1-4.27,0,3,3,0,0,1,0-4.2,3.11,3.11,0,0,1,4.27,0,3,3,0,0,1,0,4.2Zm-.44-2.1a1.85,1.85,0,0,0-.49-1.3,1.55,1.55,0,0,0-1.2-.54,1.57,1.57,0,0,0-1.21.54,2,2,0,0,0,0,2.6,1.57,1.57,0,0,0,1.21.54,1.55,1.55,0,0,0,1.2-.54A1.83,1.83,0,0,0,204.54,29.39Z" transform="translate(0)"/><path class="cls-4" d="M212.35,29.37h1.28v2a3,3,0,0,1-2.35,1,2.91,2.91,0,0,1-2.12-.84,2.79,2.79,0,0,1-.85-2.1,2.84,2.84,0,0,1,.87-2.12,2.88,2.88,0,0,1,2.1-.85,3.12,3.12,0,0,1,2.14.81l-.67.95a2.69,2.69,0,0,0-.7-.46,2,2,0,0,0-.7-.12,1.68,1.68,0,0,0-1.23.49,2,2,0,0,0,0,2.6,1.57,1.57,0,0,0,1.14.49,2.22,2.22,0,0,0,1.11-.26Z" transform="translate(0)"/><path class="cls-4" d="M221.29,31.49a3.11,3.11,0,0,1-4.27,0,3,3,0,0,1,0-4.2,3.11,3.11,0,0,1,4.27,0,3,3,0,0,1,0,4.2Zm-.44-2.1a1.85,1.85,0,0,0-.49-1.3,1.55,1.55,0,0,0-1.2-.54,1.57,1.57,0,0,0-1.21.54,2,2,0,0,0,0,2.6,1.57,1.57,0,0,0,1.21.54,1.55,1.55,0,0,0,1.2-.54A1.83,1.83,0,0,0,220.85,29.39Z" transform="translate(0)"/><path class="cls-4" d="M226.23,27.71a.49.49,0,0,0-.18.4.45.45,0,0,0,.22.4,4,4,0,0,0,1,.34,3.09,3.09,0,0,1,1.26.6,1.49,1.49,0,0,1,.45,1.17,1.55,1.55,0,0,1-.57,1.25,2.31,2.31,0,0,1-1.52.48,3.51,3.51,0,0,1-2.44-1l.76-.93a2.68,2.68,0,0,0,1.71.81.92.92,0,0,0,.55-.15.5.5,0,0,0,.2-.41.47.47,0,0,0-.22-.41,2.7,2.7,0,0,0-.84-.3,3.79,3.79,0,0,1-1.46-.62,1.47,1.47,0,0,1-.46-1.19,1.49,1.49,0,0,1,.59-1.26,2.37,2.37,0,0,1,1.46-.44,3.51,3.51,0,0,1,1.14.2,3.13,3.13,0,0,1,1,.55l-.65.93a2.54,2.54,0,0,0-1.54-.56A.76.76,0,0,0,226.23,27.71Z" transform="translate(0)"/></g></g></svg>